<svg xmlns="http://www.w3.org/2000/svg" width="25.37" height="23.48" viewBox="0 0 25.37 23.48">
  <path id="Trazado_33" data-name="Trazado 33" d="M61.306,53.3a.4.4,0,0,1-.27.447l-.1.032L52.223,56.6l-.1-.563a1.188,1.188,0,0,0-1.384-.966l-.782.138a1.192,1.192,0,0,0-.966,1.384l.1.565-9.244.327a.4.4,0,0,1-.4-.327l-1.533-8.693A.392.392,0,0,1,38.234,48l21.08-3.717a.4.4,0,0,1,.461.321Zm-9.549,5.2a.4.4,0,0,1-.323.461l-.782.138a.392.392,0,0,1-.461-.321l-.408-2.345a.4.4,0,0,1,.321-.461l.782-.136a.392.392,0,0,1,.461.321Zm9.915,1.471a.394.394,0,0,1-.318.461L41.838,63.881a.4.4,0,0,1-.461-.323l-.936-5.3,8.8-.33.175.992a1.19,1.19,0,0,0,1.384.966l.782-.136a1.192,1.192,0,0,0,.966-1.384l-.178-.992,8.382-2.7ZM51.758,44.815l-6.244,1.1-.208-1.171,6.247-1.1Zm-8.071-.184a1.192,1.192,0,0,1,.966-1.384l7.026-1.238a1.188,1.188,0,0,1,1.384.964l.277,1.563-.782.136-.277-1.561a.392.392,0,0,0-.461-.321l-7.042,1.243a.4.4,0,0,0-.323.461l.277,1.561-.782.138Zm15.5-1.123-5.073.895-.277-1.561a1.988,1.988,0,0,0-2.306-1.614L44.5,42.473a1.983,1.983,0,0,0-1.614,2.306l.277,1.563-5.073.895a1.19,1.19,0,0,0-.966,1.384l1.536,8.672a1.2,1.2,0,0,0,.975.966l.959,5.435a1.19,1.19,0,0,0,1.384.964l19.512-3.445a1.192,1.192,0,0,0,.966-1.384L61.5,54.4a1.2,1.2,0,0,0,.588-1.238l-1.533-8.693a1.19,1.19,0,0,0-1.379-.957Z" transform="translate(-37.108 -41.197)" fill="#d71920"/>
</svg>
