<svg xmlns="http://www.w3.org/2000/svg" width="25.37" height="31.546" viewBox="0 0 25.37 31.546">
  <g id="Grupo_244" data-name="Grupo 244" transform="translate(-60.915 -928.953)">
    <path id="Trazado_35" data-name="Trazado 35" d="M64.439,49.131a22.2,22.2,0,0,0,.1-4.848,28.945,28.945,0,0,0-.909-5.276.55.55,0,0,0-.536-.439,18.674,18.674,0,0,0-4.551.839,12.456,12.456,0,0,0-7.229,5.211,13.739,13.739,0,0,0-1.762,6.395l-.022.47-.351-.229A15.163,15.163,0,0,0,45.336,49.5a18.915,18.915,0,0,0-4.546-.8.574.574,0,0,0-.536.436,27.921,27.921,0,0,0-.911,5.248c-.32,3.941.272,7.287,1.709,9.679a12.4,12.4,0,0,0,7.234,5.211,19.04,19.04,0,0,0,4.546.839.574.574,0,0,0,.534-.425,28.982,28.982,0,0,0,.914-5.29,22.8,22.8,0,0,0-.06-4.571l-.034-.28.24-.056c2.709-.629,6.373-2.1,8.414-5.5a12.82,12.82,0,0,0,1.6-4.859m-11.7,18.182-.125.655L49.7,63.106v-.045l.755-4.965a.757.757,0,0,0-.094-.487.553.553,0,0,0-.351-.263.5.5,0,0,0-.418.106.681.681,0,0,0-.226.42L48.813,61.6l-3.875-6.459a.564.564,0,0,0-.361-.28.486.486,0,0,0-.411.106.66.66,0,0,0-.231.416.728.728,0,0,0,.092.484l3.847,6.434-3.166-.646a.472.472,0,0,0-.414.109.686.686,0,0,0,.219,1.164l4.26.873.019.036,2.916,4.867-.57-.09c-2.479-.4-6.972-1.62-9.184-5.3-2.625-4.367-1.315-11.111-.834-13.069l.055-.235.209.02c1.743.157,7.635,1.015,10.268,5.388,2.214,3.681,1.64,9.03,1.1,11.9m9.174-14.073c-1.832,3.038-5.224,4.383-7.743,4.979l-.24.05-.065-.26a12.548,12.548,0,0,0-.406-1.379l-.053-.148.026-.045,1.628-2.7H55.1l4.246-.87a.646.646,0,0,0,.452-.75.57.57,0,0,0-.644-.526l-3.183.655,3.871-6.434a.722.722,0,0,0-.137-.9.482.482,0,0,0-.413-.1.546.546,0,0,0-.361.263L55.063,51.5l-.553-3.7a.576.576,0,0,0-.649-.529.544.544,0,0,0-.356.28.718.718,0,0,0-.091.481l.755,4.979-1.313,2.182-.3-.506a10.351,10.351,0,0,0-1.832-2.238l-.094-.09v-.143a13.263,13.263,0,0,1,1.594-6.873c2.628-4.361,8.522-5.256,10.268-5.441l.209-.022.058.238c.469,1.975,1.789,8.756-.841,13.13" transform="translate(21.656 890.385)" fill="#d71920"/>
  </g>
</svg>
