<svg xmlns="http://www.w3.org/2000/svg" width="23.753" height="28.682" viewBox="0 0 23.753 28.682">
  <g id="Grupo_243" data-name="Grupo 243" transform="translate(-60.511 -867.373)">
    <path id="Trazado_21" data-name="Trazado 21" d="M47.749,74.381a.56.56,0,1,1,.56-.56A.565.565,0,0,1,47.749,74.381Z" transform="translate(13.323 803.468)" fill="#d71920"/>
    <path id="Trazado_22" data-name="Trazado 22" d="M69.262,66.542H48.871a1.681,1.681,0,0,1-1.681-1.689V49.866a.56.56,0,1,1,1.121,0V64.853a.56.56,0,0,0,.56.56H69.262a.563.563,0,0,0,.56-.56V39.541a.563.563,0,0,0-.56-.56H57.927a.56.56,0,1,1,0-1.121H69.262a1.683,1.683,0,0,1,1.681,1.681V64.853a1.683,1.683,0,0,1-1.681,1.681Z" transform="translate(13.321 829.513)" fill="#d71920"/>
    <path id="Trazado_23" data-name="Trazado 23" d="M67.638,58.692a4.493,4.493,0,0,1,8.029,0A6.343,6.343,0,0,1,67.638,58.692Zm2.378-5.238v-.547a1.625,1.625,0,0,1,3.248,0v.547a1.625,1.625,0,1,1-3.248,0Zm1.625-7.114a7.4,7.4,0,0,0-1.139.087.56.56,0,1,0,.169,1.107,6.235,6.235,0,0,1,.97-.074,6.327,6.327,0,0,1,4.841,10.4,5.621,5.621,0,0,0-1.654-1.786,5.55,5.55,0,0,0-1.271-.661,2.73,2.73,0,0,0,.827-1.961v-.547a2.746,2.746,0,0,0-5.489,0v.547a2.73,2.73,0,0,0,.827,1.961,5.642,5.642,0,0,0-2.918,2.463,6.343,6.343,0,0,1-1.4-3.031.56.56,0,0,0-1.1.185,7.453,7.453,0,1,0,7.349-8.692Z" transform="translate(0.733 823.274)" fill="#d71920"/>
    <path id="Trazado_24" data-name="Trazado 24" d="M87.995,123.351H80.04a.56.56,0,0,1,0-1.121h7.955a.56.56,0,0,1,0,1.121Z" transform="translate(-10.435 767.44)" fill="#d71920"/>
    <path id="Trazado_25" data-name="Trazado 25" d="M70.992,111.48a.563.563,0,1,1,.514-.347.56.56,0,0,1-.514.347Z" transform="translate(-3.778 776.173)" fill="#d71920"/>
    <path id="Trazado_26" data-name="Trazado 26" d="M70.992,123.35a.561.561,0,1,1,.56-.56A.56.56,0,0,1,70.992,123.35Z" transform="translate(-3.778 767.44)" fill="#d71920"/>
    <path id="Trazado_27" data-name="Trazado 27" d="M87.995,111.481H80.04a.56.56,0,0,1,0-1.121h7.955a.56.56,0,0,1,0,1.121Z" transform="translate(-10.435 776.173)" fill="#d71920"/>
    <path id="Trazado_28" data-name="Trazado 28" d="M57.819,52.814a.563.563,0,0,1-.4-.164L56.4,51.63a.561.561,0,0,1,.793-.793l.624.629,1.823-1.823a.561.561,0,1,1,.793.793l-2.22,2.223a.568.568,0,0,1-.4.164Z" transform="translate(6.664 820.965)" fill="#d71920"/>
    <path id="Trazado_29" data-name="Trazado 29" d="M51.82,38.981a3.473,3.473,0,1,0,3.473,3.473A3.473,3.473,0,0,0,51.82,38.981Zm0,8.066A4.6,4.6,0,1,1,55.075,45.7,4.593,4.593,0,0,1,51.82,47.046Z" transform="translate(13.284 829.513)" fill="#d71920"/>
  </g>
</svg>
